<svg width="120" height="14" viewBox="0 0 120 14" fill="none" xmlns="http://www.w3.org/2000/svg">
<g id="logo">
<g id="XMLID_234_">
<path id="XMLID_243_" d="M9.42311 1.52885V8.16346C9.42311 10.375 8.46157 11.2885 6.15387 11.2885C3.84618 11.2885 2.88464 10.375 2.88464 8.16346V1.24039H0.673105C0.528874 1.24039 0.384644 1.38462 0.384644 1.52885V8.25962C0.384644 11.9615 2.74041 13.2596 6.15387 13.2596C9.56734 13.2596 11.9231 11.9615 11.9231 8.25962V1.24039H9.71157C9.56734 1.24039 9.42311 1.33654 9.42311 1.52885Z" fill="black"/>
<path id="XMLID_242_" d="M41.5866 3.16346C41.7789 3.16346 41.8751 3.11539 41.9231 2.97116L42.5481 1.38462C42.5962 1.28846 42.5481 1.24039 42.452 1.24039H33.5097C32.6924 1.24039 32.3558 1.48077 32.3558 2.05769V12.3462C32.3558 12.8269 32.5962 13.0673 33.2212 13.0673H41.5385C41.7308 13.0673 41.827 13.0192 41.8751 12.875L42.5001 11.2885C42.5481 11.1923 42.5001 11.1442 42.4039 11.1442H34.8078V9.02885C34.8078 8.30769 35.1924 7.97116 36.2981 7.97116H39.6155C39.8078 7.97116 39.9039 7.92308 39.952 7.77885L40.577 6.24039C40.6251 6.14423 40.577 6.09616 40.4808 6.09616H34.8558V3.11539H41.5866V3.16346Z" fill="black"/>
<path id="XMLID_238_" fill-rule="evenodd" clip-rule="evenodd" d="M25.8654 6.81732C26.827 6.28845 27.2116 5.375 27.2116 4.22116C27.2116 1.625 25.0962 1.24039 22.8847 1.24039H17.8366C17.0193 1.24039 16.6827 1.48077 16.6827 2.05771V12.3462C16.6827 12.8269 16.9231 13.0673 17.5481 13.0673H23.7501C26.1058 13.0673 27.7404 12.1538 27.7404 9.79807C27.7885 8.35577 27.2116 7.15384 25.8654 6.81732ZM19.1827 3.11539H23.077C24.3751 3.11539 24.7597 3.59616 24.7597 4.60577C24.7597 5.61539 24.3751 6.09616 23.077 6.09616H19.1827V3.11539ZM19.1827 11.1442H23.5577C24.952 11.1442 25.3366 10.6635 25.3366 9.55768C25.3366 8.4519 24.952 7.92307 23.5577 7.92307H20.6731C19.5674 7.92307 19.1827 8.25961 19.1827 8.98074V11.1442Z" fill="black"/>
<path id="XMLID_235_" fill-rule="evenodd" clip-rule="evenodd" d="M55.3846 8.30771L58.0288 12.875C58.0769 12.9231 58.0769 13.0673 57.9808 13.0673H55.7212C55.5288 13.0673 55.4808 13.0192 55.3846 12.875L52.9808 8.54807H50.8173C49.7115 8.54807 49.3269 8.88461 49.3269 9.60577V13.0673H47.1635C47.0192 13.0673 46.875 12.9231 46.875 12.7788V2.05771C46.875 1.48077 47.2115 1.24039 48.0288 1.24039H53.0769C56.0096 1.24039 57.7885 2.00961 57.7885 4.89423C57.7885 7.10577 56.6827 7.97116 55.3846 8.30771ZM49.2788 6.72116H53.4135C54.9519 6.72116 55.2885 6.14423 55.2885 4.89423C55.2885 3.69232 54.9519 3.11539 53.4135 3.11539H49.2788V6.72116Z" fill="black"/>
</g>
<g id="XMLID_224_">
<path id="XMLID_232_" d="M76.4424 12.0096L76.3943 13.0673H67.6443V1.24039H76.0577L76.1058 2.34616H68.8462V6.43269H75.0962V7.39423H68.8462V12.0096H76.4424Z" fill="#57AD56" stroke="#57AD56" stroke-width="0.25"/>
<g id="XMLID_229_">
<path fill-rule="evenodd" clip-rule="evenodd" d="M83.702 9.99039H90.6731L92.0193 13.0673H93.3654L87.9327 1.24039H86.5385L81.0577 13.0673H82.3558L83.702 9.99039ZM84.1347 8.98077L86.6827 3.25964L87.1635 2.05771H87.2116L87.6924 3.25964L90.1924 8.98077H84.1347Z" fill="#57AD56"/>
<path d="M90.6731 9.99039L90.7876 9.94028L90.7549 9.86539H90.6731V9.99039ZM83.702 9.99039V9.86539H83.6202L83.5874 9.94028L83.702 9.99039ZM92.0193 13.0673L91.9048 13.1174L91.9375 13.1923H92.0193V13.0673ZM93.3654 13.0673V13.1923H93.5604L93.479 13.0151L93.3654 13.0673ZM87.9327 1.24039L88.0463 1.18821L88.0129 1.11539H87.9327V1.24039ZM86.5385 1.24039V1.11539H86.4587L86.4251 1.18783L86.5385 1.24039ZM81.0577 13.0673L80.9443 13.0148L80.862 13.1923H81.0577V13.0673ZM82.3558 13.0673V13.1923H82.4376L82.4703 13.1174L82.3558 13.0673ZM86.6827 3.25964L86.797 3.31054L86.7988 3.30607L86.6827 3.25964ZM84.1347 8.98077L84.0205 8.92992L83.9422 9.10577H84.1347V8.98077ZM87.1635 2.05771V1.93271H87.0789L87.0475 2.01128L87.1635 2.05771ZM87.2116 2.05771L87.3277 2.01129L87.2962 1.93271H87.2116V2.05771ZM87.6924 3.25964L87.5762 3.30609L87.5778 3.3097L87.6924 3.25964ZM90.1924 8.98077V9.10577H90.3834L90.3069 8.93072L90.1924 8.98077ZM90.6731 9.86539H83.702V10.1154H90.6731V9.86539ZM92.1338 13.0172L90.7876 9.94028L90.5586 10.0405L91.9048 13.1174L92.1338 13.0172ZM93.3654 12.9423H92.0193V13.1923H93.3654V12.9423ZM87.8191 1.29256L93.2518 13.1195L93.479 13.0151L88.0463 1.18821L87.8191 1.29256ZM86.5385 1.36539H87.9327V1.11539H86.5385V1.36539ZM81.1712 13.1199L86.6519 1.29294L86.4251 1.18783L80.9443 13.0148L81.1712 13.1199ZM82.3558 12.9423H81.0577V13.1923H82.3558V12.9423ZM83.5874 9.94028L82.2413 13.0172L82.4703 13.1174L83.8165 10.0405L83.5874 9.94028ZM86.5686 3.20879L84.0205 8.92992L84.2489 9.03163L86.7969 3.3105L86.5686 3.20879ZM87.0475 2.01128L86.5667 3.21322L86.7988 3.30607L87.2796 2.10413L87.0475 2.01128ZM87.2116 1.93271H87.1635V2.18271H87.2116V1.93271ZM87.8084 3.21322L87.3277 2.01129L87.0955 2.10413L87.5763 3.30606L87.8084 3.21322ZM90.3069 8.93072L87.8069 3.20959L87.5778 3.3097L90.0778 9.03083L90.3069 8.93072ZM84.1347 9.10577H90.1924V8.85577H84.1347V9.10577Z" fill="#57AD56"/>
</g>
<path id="XMLID_227_" d="M102.019 2.34616V13.0673H100.817V2.34616H96.3943L96.4424 1.24039H106.49V2.34616H102.019Z" fill="#57AD56" stroke="#57AD56" stroke-width="0.25"/>
<path id="XMLID_225_" d="M115.048 13.3077C113.414 13.3077 112.115 12.9231 111.058 12.2981L111.25 11.2404C112.356 11.8654 113.606 12.25 115.096 12.25C117.308 12.25 118.462 11.2404 118.462 9.79808C118.462 6.67308 111.25 8.30769 111.25 4.26923C111.25 2.53846 112.548 1 115.577 1C116.971 1 118.221 1.24038 119.231 1.72115L119.039 2.73077C117.933 2.29808 116.875 2.05769 115.625 2.05769C113.269 2.05769 112.404 3.11538 112.404 4.17308C112.404 7.15385 119.615 5.47115 119.615 9.70192C119.567 11.8173 118.029 13.3077 115.048 13.3077Z" fill="#57AD56" stroke="#57AD56" stroke-width="0.25"/>
</g>
</g>
</svg>
